<?xml version="1.0" encoding="UTF-8"?>
<svg id="Layer_2" data-name="Layer 2" xmlns="http://www.w3.org/2000/svg" viewBox="0 0 142.21 142.1">
  <defs>
    <style>
      .cls-1 {
        fill: #ff7900;
      }
    </style>
  </defs>
  <g id="Layer_1-2" data-name="Layer 1">
    <path class="cls-1" d="M30.43,42.71c47.49-6.45,82.89,41.48,61.28,84.18-2.2,4.35-11.21,18.32-16.79,14.59-3.41-2.28-10.85-10.78-14.28-14.32C39.9,105.82,20.43,83.03,0,61.38l.1-2.71c7.26-8.15,19.47-14.49,30.33-15.96ZM32.11,50.49c-1.03-.92-12.06,3.27-14.1,4.23-1.64.77-8.03,3.75-7.71,5.91.24,1.62,18.99,21.69,21.79,24.48,1.57,1.57,2.9,3.79,5.47,3.34l-5.45-37.96ZM40.27,50.49c1.61,11.91,2.39,24.06,4.06,35.96.28,2.01-.04,3.38,2.06,4.69l27.87-27.73c-9.35-8.01-21.35-14.01-34-12.93ZM90.59,103.39c.42-11.67-3.32-23.23-10.22-32.56-1.92-.44-25.94,23.13-29.2,26.46l39.42,6.1ZM89.23,111.54l-36.71-5.43c4.94,3.9,20.88,25.17,25.19,25.82,2.65-.98,6.02-6.75,7.21-9.12,1.84-3.63,2.58-7.62,4.31-11.28Z"/>
    <path class="cls-1" d="M105.6,26.02c8.9-.65,16.87.96,25.13,4.1,3.32,1.26,12.58,4.16,11.37,8.6-.98,3.59-16.57,16.93-20.68,18.79-17.74,8.04-34.55-3.07-26.75-21.92-20.78.55-15.69-22.07-10.81-35.22,4.81-3.4,25.02,17.81,21.74,25.66ZM94.67,31.51c6.69,1,7.81-7.51,6.46-12.56-.66-2.47-11.33-15.18-13.27-13.2l6.81,25.76ZM86.5,8.45c-3.55-.4-2.15.06-2.75,1.99-2.7,8.7-3,20.86,8.19,22.42l-5.44-24.41ZM131.38,36.92c-9.42-8.92-31.88-10.92-33.98,5.43l33.98-5.43ZM100.59,52.72c4.69,4.44,10.84,3.88,16.58,1.91,2.48-.85,19.61-12.32,16.91-14.99l-36.69,6.79c-.88.85,2.3,5.44,3.2,6.29Z"/>
  </g>
</svg>